PathFileType	4	(x/y/z)	S06_M20_T25
DataRate	CameraRate	NumFrames	NumMarkers	Units	OrigDataRate	OrigDataStartFrame	OrigNumFrames
240	240	5	51	mm	240	62	492
Frame#	Time	Sternum			R.Acromium			L.Acromium			Top.Head			R.ASIS			L.ASIS			R.PSIS			L.PSIS			R.Great.Tro			L.Great.Tro			R.Iliac.Crest			L.Iliac.Crest			V.Sacral			R.Thigh.Upper.Post			R.Thigh.Lower.Ant			R.Thigh.Lower.Post			R.Thigh.Upper.Ant			R.Knee.Lat			R.Knee.Med			R.Shank.Upper.Post			R.Shank.Lower.Ant			R.Shank.Lower.Post			R.Shank.Upper.Ant			R.Ankle.Lat			R.Ankle.Med			R.Heel.Upper			R.Heel.Med			R.Heel.Lat			R.Toe.Lat			R.Toe.Med			R.Toe.Tip			L.Thigh.Upper.Post			L.Thigh.Lower.Ant			L.Thigh.Lower.Post			L.Thigh.Upper.Ant			L.Knee.Lat			L.Knee.Med			L.Shank.Upper.Post			L.Shank.Lower.Ant			L.Shank.Lower.Post			L.Shank.Upper.Ant			L.Ankle.Lat			L.Ankle.Med			L.Heel.Upper			L.Heel.Med			L.Heel.Lat			L.Toe.Lat			L.Toe.Med			L.Toe.Tip			Cervical.Spine			Back			
		X1	Y1	Z1	X2	Y2	Z2	X3	Y3	Z3	X4	Y4	Z4	X5	Y5	Z5	X6	Y6	Z6	X7	Y7	Z7	X8	Y8	Z8	X9	Y9	Z9	X10	Y10	Z10	X11	Y11	Z11	X12	Y12	Z12	X13	Y13	Z13	X14	Y14	Z14	X15	Y15	Z15	X16	Y16	Z16	X17	Y17	Z17	X18	Y18	Z18	X19	Y19	Z19	X20	Y20	Z20	X21	Y21	Z21	X22	Y22	Z22	X23	Y23	Z23	X24	Y24	Z24	X25	Y25	Z25	X26	Y26	Z26	X27	Y27	Z27	X28	Y28	Z28	X29	Y29	Z29	X30	Y30	Z30	X31	Y31	Z31	X32	Y32	Z32	X33	Y33	Z33	X34	Y34	Z34	X35	Y35	Z35	X36	Y36	Z36	X37	Y37	Z37	X38	Y38	Z38	X39	Y39	Z39	X40	Y40	Z40	X41	Y41	Z41	X42	Y42	Z42	X43	Y43	Z43	X44	Y44	Z44	X45	Y45	Z45	X46	Y46	Z46	X47	Y47	Z47	X48	Y48	Z48	X49	Y49	Z49	X50	Y50	Z50	X51	Y51	Z51	

62	0.25417	NaN	NaN	NaN	-1372.8	1499.1	438.73	-1360.8	1491.8	88.567	-1306.7	1810.4	257.06	NaN	NaN	NaN	NaN	NaN	NaN	-1453.9	1066.3	293.03	-1449.8	1073.5	213.82	-1331.7	972.49	450.54	-1317.4	985.32	93.219	-1367.4	1126	432.47	-1304.5	1127	113.76	-1466.1	1035.8	254.78	-1309.5	725.8	459.34	-1244.4	645.96	441.48	-1314.3	636.42	447.99	-1240.5	736.95	448.8	-1300.3	530.3	444.88	-1277.8	522.9	317.38	-1493.1	412.23	442.8	NaN	NaN	NaN	-1549.8	363.83	427.43	-1440.9	370.13	437.89	-1636.6	261.27	405.02	-1613	247.7	323.29	-1699.4	283.9	351.81	-1713.1	258.89	320.35	-1721.1	262.74	383.85	-1637.7	111.33	436.68	-1602.2	92.213	323.69	-1561.3	48.976	371.34	-1232.4	729.15	114.02	-1173.3	658.88	175.63	-1240	641.15	136.69	-1171.6	750.92	149.09	-1244.9	546.59	157.44	-1210.6	559.62	274.26	-1285.2	317.66	179.35	-1218.8	257.55	180.3	-1288.4	246.75	199.02	-1219.2	327.04	165.48	-1238.3	108.39	202.48	-1224.7	130.85	287.67	-1313.2	73.696	255.09	-1306.6	47.916	287.78	-1308.4	48.153	225.44	-1130.2	43.519	182.05	-1108	53.694	299.2	-1036.4	63.487	240.74	-1427	1548.6	261.38	-1470	1271.1	262.22
63	0.25833	NaN	NaN	NaN	-1367.7	1499.7	438.58	-1355.2	1492.5	88.408	-1301.1	1811	257.12	NaN	NaN	NaN	NaN	NaN	NaN	-1448.6	1067	292.82	-1444.6	1074.3	213.63	-1326.1	973.27	450.4	-1312.6	986.08	92.986	-1362.3	1126.7	432.24	-1299.6	1127.8	113.58	-1460.9	1036.6	254.56	-1301	726.72	459.3	-1235.4	647.53	441.17	-1305	637.35	447.95	-1232.1	738.52	448.51	-1290	531.39	444.75	-1267.4	523.79	317.24	-1481.6	411.83	442.76	NaN	NaN	NaN	-1537.7	362.74	427.64	-1429.2	370.27	438.01	-1624	259.61	405.39	-1600.2	246.01	323.74	-1687.7	280.64	352	-1701	254.89	320.76	-1709.4	259.15	384.37	-1621.9	110.17	438.24	-1586.1	90.827	325.3	-1544.1	49.028	373.25	-1229.2	729.47	113.99	-1170.4	658.73	175.53	-1237.3	641.5	136.56	-1168.1	750.8	149.03	-1242.9	546.82	157.42	-1208.6	559.63	274.24	-1284.3	317.95	179.43	-1218.1	257.62	180.23	-1287.7	247.07	199.1	-1218.3	327.07	165.38	-1238.1	108.52	202.53	-1224.3	130.95	287.64	-1313.1	73.847	255.12	-1306.6	48.013	287.8	-1308.3	48.334	225.45	-1130.1	43.51	182.02	-1107.9	53.412	299.29	-1036.2	63.006	240.83	-1421.7	1549.4	261.22	-1464.8	1271.8	261.83
64	0.2625	NaN	NaN	NaN	-1362.6	1500.4	438.44	-1349.8	1493.3	88.256	-1295.4	1811.7	257.2	NaN	NaN	NaN	NaN	NaN	NaN	-1443.3	1067.6	292.67	-1439.5	1075	213.49	-1320.5	974.02	450.28	-1308	986.82	92.766	-1357.1	1127.4	432.03	-1294.8	1128.7	113.41	-1455.7	1037.3	254.4	-1292.4	727.64	459.24	-1226.4	649.11	440.84	-1295.7	638.29	447.87	-1223.7	740.09	448.2	-1279.7	532.49	444.59	-1257.2	524.76	317.07	-1470.1	411.36	442.71	NaN	NaN	NaN	-1525.5	361.53	427.86	-1417.4	370.37	438.11	-1611.3	257.8	405.77	-1587.4	244.21	324.18	-1675.8	277.23	352.23	-1688.7	250.76	321.22	-1697.5	255.42	384.94	-1606.1	108.91	439.73	-1569.9	89.404	326.84	-1526.8	49.06	375.06	-1225.9	729.8	113.97	-1167.7	658.59	175.46	-1234.7	641.86	136.44	-1164.7	750.67	149	-1241.1	547.05	157.39	-1206.7	559.64	274.22	-1283.5	318.25	179.49	-1217.4	257.69	180.16	-1287	247.4	199.16	-1217.4	327.12	165.28	-1237.9	108.65	202.58	-1224	131.05	287.61	-1313	74	255.14	-1306.6	48.115	287.81	-1308.2	48.513	225.45	-1130	43.502	181.99	-1107.9	53.146	299.37	-1036	62.545	240.9	-1416.4	1550.1	261.06	-1459.6	1272.6	261.47
65	0.26667	NaN	NaN	NaN	-1357.4	1501	438.29	-1344.3	1494	88.111	-1289.8	1812.3	257.29	NaN	NaN	NaN	NaN	NaN	NaN	-1438.1	1068.3	292.57	-1434.4	1075.7	213.41	-1314.9	974.76	450.16	-1303.4	987.54	92.559	-1351.9	1128.1	431.84	-1290.1	1129.5	113.26	-1450.6	1037.9	254.29	-1284	728.57	459.18	-1217.5	650.69	440.46	-1286.5	639.25	447.77	-1215.3	741.68	447.87	-1269.5	533.62	444.4	-1246.9	525.79	316.86	-1458.5	410.79	442.66	NaN	NaN	NaN	-1513.2	360.21	428.09	-1405.6	370.43	438.21	-1598.5	255.86	406.17	-1574.5	242.31	324.6	-1663.8	273.67	352.51	-1676.3	246.52	321.73	-1685.3	251.54	385.54	-1590.1	107.57	441.16	-1553.7	87.952	328.28	-1509.3	49.074	376.78	-1222.7	730.12	113.96	-1164.9	658.45	175.4	-1232	642.22	136.32	-1161.3	750.53	148.98	-1239.2	547.29	157.37	-1204.9	559.66	274.22	-1282.7	318.54	179.55	-1216.8	257.77	180.08	-1286.4	247.72	199.22	-1216.6	327.18	165.18	-1237.7	108.77	202.61	-1223.6	131.15	287.56	-1312.9	74.155	255.16	-1306.5	48.221	287.82	-1308.2	48.692	225.45	-1130	43.493	181.96	-1107.8	52.893	299.44	-1035.9	62.101	240.97	-1411.1	1550.8	260.91	-1454.4	1273.3	261.14
66	0.27083	NaN	NaN	NaN	-1352.3	1501.6	438.15	-1338.9	1494.7	87.972	-1284.2	1812.9	257.39	NaN	NaN	NaN	NaN	NaN	NaN	-1432.9	1068.9	292.53	-1429.3	1076.4	213.37	-1309.3	975.47	450.05	-1298.9	988.24	92.365	-1346.8	1128.8	431.66	-1285.6	1130.4	113.12	-1445.5	1038.6	254.24	-1275.6	729.51	459.1	-1208.7	652.29	440.05	-1277.3	640.21	447.65	-1207	743.27	447.51	-1259.4	534.77	444.18	-1236.8	526.9	316.61	-1446.8	410.14	442.63	NaN	NaN	NaN	-1500.9	358.78	428.33	-1393.8	370.44	438.29	-1585.6	253.78	406.58	-1561.5	240.32	325.01	-1651.6	269.98	352.83	-1663.6	242.17	322.28	-1672.9	247.53	386.18	-1574	106.15	442.53	-1537.3	86.475	329.64	-1491.7	49.071	378.4	-1219.6	730.43	113.96	-1162.2	658.3	175.36	-1229.4	642.57	136.22	-1157.9	750.39	148.99	-1237.4	547.52	157.36	-1203.1	559.68	274.23	-1281.9	318.83	179.61	-1216.2	257.86	180	-1285.8	248.05	199.28	-1215.8	327.25	165.08	-1237.5	108.9	202.65	-1223.3	131.24	287.51	-1312.9	74.314	255.18	-1306.5	48.332	287.82	-1308.1	48.869	225.44	-1129.9	43.483	181.92	-1107.7	52.651	299.49	-1035.7	61.672	241.04	-1405.9	1551.4	260.77	-1449.2	1274	260.83
